<?xml version="1.0" standalone="no"?>
<!DOCTYPE svg PUBLIC "-//W3C//DTD SVG 20010904//EN"
 "http://www.w3.org/TR/2001/REC-SVG-20010904/DTD/svg10.dtd">
<svg version="1.0" xmlns="http://www.w3.org/2000/svg"
 width="64.000000pt" height="42.000000pt" viewBox="0 0 64.000000 42.000000"
 preserveAspectRatio="xMidYMid meet">

<g transform="translate(0.000000,42.000000) scale(0.100000,-0.100000)"
fill="#000000" stroke="none">
<path d="M0 210 l0 -210 105 0 105 0 0 210 0 210 -105 0 -105 0 0 -210z"/>
<path d="M430 210 l0 -210 105 0 105 0 0 210 0 210 -105 0 -105 0 0 -210z"/>
<path d="M314 282 c-16 -10 -12 -65 6 -79 13 -11 12 -12 -6 -13 -11 0 -26 6
-33 13 -11 10 -13 9 -9 -3 3 -8 14 -16 26 -18 12 -2 22 -7 22 -12 0 -4 8 -6
18 -3 21 5 25 31 8 52 -9 11 -7 13 12 7 27 -9 30 9 6 42 -16 23 -31 27 -50 14z"/>
</g>
</svg>
